<svg width="19" height="20" viewBox="0 0 19 20" fill="none" xmlns="http://www.w3.org/2000/svg">
<path d="M12.9035 11.3853C13.5147 10.9117 13.9638 10.2564 14.1877 9.51143C14.4116 8.76643 14.3991 7.96919 14.1519 7.23176C13.9047 6.49433 13.4352 5.85377 12.8095 5.4001C12.1838 4.94643 11.4332 4.70245 10.6633 4.70245C9.89335 4.70245 9.14278 4.94643 8.51704 5.4001C7.8913 5.85377 7.42184 6.49433 7.17463 7.23176C6.92743 7.96919 6.9149 8.76643 7.13882 9.51143C7.36274 10.2564 7.81184 10.9117 8.42301 11.3853C7.27623 11.8184 6.27705 12.5764 5.5449 13.5686C5.45234 13.6934 5.4126 13.8503 5.43442 14.0048C5.45623 14.1592 5.53782 14.2986 5.66122 14.3922C5.78463 14.4858 5.93975 14.526 6.09246 14.5039C6.24517 14.4818 6.38296 14.3993 6.47551 14.2745C6.96311 13.617 7.59537 13.0833 8.32224 12.7158C9.0491 12.3482 9.85061 12.1569 10.6633 12.1569C11.4759 12.1569 12.2774 12.3482 13.0043 12.7158C13.7312 13.0833 14.3634 13.617 14.851 14.2745C14.9436 14.3993 15.0814 14.4818 15.2341 14.5039C15.3868 14.526 15.5419 14.4858 15.6653 14.3922C15.7887 14.2986 15.8703 14.1592 15.8921 14.0048C15.9139 13.8503 15.8742 13.6934 15.7816 13.5686C15.0495 12.5764 14.0503 11.8184 12.9035 11.3853ZM8.14286 8.43137C8.14286 7.92722 8.29068 7.4344 8.56762 7.01521C8.84457 6.59603 9.2382 6.26932 9.69875 6.07639C10.1593 5.88346 10.6661 5.83298 11.155 5.93133C11.6439 6.02969 12.093 6.27246 12.4455 6.62894C12.7979 6.98543 13.038 7.43962 13.1352 7.93408C13.2325 8.42854 13.1826 8.94107 12.9918 9.40684C12.8011 9.87261 12.478 10.2707 12.0635 10.5508C11.649 10.8309 11.1618 10.9804 10.6633 10.9804C9.99481 10.9804 9.35374 10.7118 8.88107 10.2338C8.4084 9.75577 8.14286 9.10742 8.14286 8.43137ZM17.6429 0H3.68367C3.32374 0 2.97854 0.144608 2.72403 0.40201C2.46951 0.659413 2.32653 1.00853 2.32653 1.37255V3.92157H0.581633C0.427374 3.92157 0.279433 3.98354 0.170356 4.09386C0.0612789 4.20417 0 4.35379 0 4.5098C0 4.66581 0.0612789 4.81543 0.170356 4.92575C0.279433 5.03606 0.427374 5.09804 0.581633 5.09804H2.32653V9.41177H0.581633C0.427374 9.41177 0.279433 9.47374 0.170356 9.58405C0.0612789 9.69437 0 9.84399 0 10C0 10.156 0.0612789 10.3056 0.170356 10.4159C0.279433 10.5263 0.427374 10.5882 0.581633 10.5882H2.32653V14.902H0.581633C0.427374 14.902 0.279433 14.9639 0.170356 15.0743C0.0612789 15.1846 0 15.3342 0 15.4902C0 15.6462 0.0612789 15.7958 0.170356 15.9061C0.279433 16.0165 0.427374 16.0784 0.581633 16.0784H2.32653V18.6275C2.32653 18.9915 2.46951 19.3406 2.72403 19.598C2.97854 19.8554 3.32374 20 3.68367 20H17.6429C18.0028 20 18.348 19.8554 18.6025 19.598C18.857 19.3406 19 18.9915 19 18.6275V1.37255C19 1.00853 18.857 0.659413 18.6025 0.40201C18.348 0.144608 18.0028 0 17.6429 0ZM17.8367 18.6275C17.8367 18.6795 17.8163 18.7293 17.7799 18.7661C17.7436 18.8029 17.6943 18.8235 17.6429 18.8235H3.68367C3.63225 18.8235 3.58294 18.8029 3.54658 18.7661C3.51022 18.7293 3.4898 18.6795 3.4898 18.6275V1.37255C3.4898 1.32055 3.51022 1.27067 3.54658 1.2339C3.58294 1.19713 3.63225 1.17647 3.68367 1.17647H17.6429C17.6943 1.17647 17.7436 1.19713 17.7799 1.2339C17.8163 1.27067 17.8367 1.32055 17.8367 1.37255V18.6275Z" fill="#333333"/>
</svg>
