<svg width="23" height="23" viewBox="0 0 23 23" fill="none" xmlns="http://www.w3.org/2000/svg">
<g clip-path="url(#clip0_34_1244)">
<path d="M19.1704 10.231C19.7544 10.508 20.2822 10.8561 20.7539 11.2754C21.2256 11.6947 21.6299 12.1701 21.9668 12.7017C22.3037 13.2332 22.5583 13.8022 22.7305 14.4087C22.9027 15.0151 22.9925 15.644 23 16.2954C23 17.2163 22.8241 18.0848 22.4722 18.9009C22.1203 19.717 21.6411 20.4282 21.0347 21.0347C20.4282 21.6411 19.717 22.1203 18.9009 22.4722C18.0848 22.8241 17.2163 23 16.2954 23C15.644 23 15.0151 22.9102 14.4087 22.7305C13.8022 22.5508 13.237 22.2962 12.7129 21.9668C12.1888 21.6374 11.7134 21.2368 11.2866 20.7651C10.8599 20.2935 10.508 19.7619 10.231 19.1704H0V1.92041H3.82959V0H5.75V1.92041H13.4204V0H15.3296V1.92041H19.1704V10.231ZM1.92041 5.75H17.25V3.82959H1.92041V5.75ZM9.64697 17.25C9.60205 16.9355 9.57959 16.6173 9.57959 16.2954C9.57959 15.367 9.75553 14.4948 10.1074 13.6787C10.4593 12.8626 10.9385 12.1514 11.5449 11.5449C12.1514 10.9385 12.8626 10.4593 13.6787 10.1074C14.4948 9.75553 15.367 9.57959 16.2954 9.57959C16.6173 9.57959 16.9355 9.60205 17.25 9.64697V7.67041H1.92041V17.25H9.64697ZM16.2954 21.0796C16.9543 21.0796 17.5719 20.9561 18.1484 20.709C18.7249 20.4619 19.234 20.1175 19.6758 19.6758C20.1175 19.234 20.4582 18.7287 20.6978 18.1597C20.9373 17.5907 21.0646 16.9692 21.0796 16.2954C21.0796 15.6366 20.9561 15.0151 20.709 14.4312C20.4619 13.8472 20.1213 13.3381 19.687 12.9038C19.2528 12.4696 18.7437 12.1289 18.1597 11.8818C17.5757 11.6348 16.9543 11.5075 16.2954 11.5C15.6291 11.5 15.0076 11.6235 14.4312 11.8706C13.8547 12.1177 13.3455 12.4621 12.9038 12.9038C12.4621 13.3455 12.1214 13.8547 11.8818 14.4312C11.6423 15.0076 11.515 15.6291 11.5 16.2954C11.5 16.9618 11.6235 17.5832 11.8706 18.1597C12.1177 18.7362 12.4621 19.2415 12.9038 19.6758C13.3455 20.11 13.8547 20.4507 14.4312 20.6978C15.0076 20.9448 15.6291 21.0721 16.2954 21.0796ZM17.25 15.3296H19.1704V17.25H15.3296V13.4204H17.25V15.3296Z" fill="#333333"/>
</g>
<defs>
<clipPath id="clip0_34_1244">
<rect width="23" height="23" fill="white"/>
</clipPath>
</defs>
</svg>
